<svg xmlns="http://www.w3.org/2000/svg" xmlns:xlink="http://www.w3.org/1999/xlink" width="49" height="49" viewBox="0 0 49 49"><defs><style>.a,.c{fill:#707070;}.a{stroke:#707070;}.b{clip-path:url(#a);}</style><clipPath id="a"><circle class="a" cx="24.5" cy="24.5" r="24.5" transform="translate(272.667 446)"/></clipPath></defs><g class="b" transform="translate(-272.667 -446)"><path class="c" d="M49.038,24.519A24.519,24.519,0,1,0,7.958,42.581l-.023.021.8.67c.052.044.108.079.16.122.423.35.86.683,1.306,1,.144.1.289.209.436.31q.714.492,1.464.934c.109.064.218.127.328.189.547.311,1.1.6,1.676.874l.127.057a24.3,24.3,0,0,0,5.93,1.877l.164.029c.646.111,1.3.2,1.959.26l.242.019c.658.054,1.323.089,2,.089S25.846,49,26.5,48.951l.249-.019q.983-.09,1.942-.256l.167-.03A24.3,24.3,0,0,0,34.7,46.814c.068-.031.136-.061.2-.093q.825-.388,1.615-.835.2-.111.391-.226c.48-.283.951-.578,1.41-.892.165-.112.326-.231.489-.349.391-.282.776-.572,1.149-.876.083-.067.172-.125.253-.193l.816-.681-.024-.021A24.456,24.456,0,0,0,49.038,24.519Zm-47.255,0a22.736,22.736,0,1,1,37.814,17,6.682,6.682,0,0,0-.8-.479l-7.549-3.774a1.976,1.976,0,0,1-1.1-1.777V32.849c.175-.216.359-.46.55-.728a18.169,18.169,0,0,0,2.332-4.568,3.236,3.236,0,0,0,1.859-2.932V21.46a3.244,3.244,0,0,0-.791-2.112V15.187a7.191,7.191,0,0,0-1.679-5.228c-1.643-1.876-4.3-2.825-7.906-2.825s-6.263.95-7.906,2.825a7.191,7.191,0,0,0-1.679,5.228v4.161a3.249,3.249,0,0,0-.791,2.112V24.62a3.243,3.243,0,0,0,1.195,2.515,16.753,16.753,0,0,0,2.758,5.7v2.58a1.989,1.989,0,0,1-1.036,1.746L10.01,41a6.445,6.445,0,0,0-.67.424A22.681,22.681,0,0,1,1.783,24.519Zm36.073,18.4c-.312.226-.629.446-.951.655-.148.1-.3.193-.446.286-.421.26-.849.508-1.286.74-.1.051-.193.1-.291.149a22.719,22.719,0,0,1-3.11,1.316l-.113.038q-.839.278-1.7.492h-.005c-.578.143-1.163.261-1.751.358l-.048.009c-.554.09-1.112.155-1.672.2-.1.009-.2.015-.3.022-.554.042-1.11.069-1.669.069s-1.129-.028-1.69-.07c-.1-.007-.194-.013-.291-.022-.565-.05-1.128-.117-1.685-.208l-.075-.013a22.651,22.651,0,0,1-3.468-.866l-.105-.036q-.841-.286-1.66-.636l-.012-.005c-.515-.222-1.021-.468-1.52-.728-.065-.034-.131-.066-.2-.1-.456-.243-.9-.506-1.341-.781q-.2-.123-.388-.249c-.4-.265-.8-.54-1.193-.832-.04-.03-.078-.062-.119-.093l.086-.048,7.05-3.845a3.77,3.77,0,0,0,1.966-3.311V32.2l-.205-.248A14.887,14.887,0,0,1,17,26.41l-.081-.353-.3-.2a1.478,1.478,0,0,1-.686-1.241V21.458a1.456,1.456,0,0,1,.5-1.09l.294-.266V15.136l-.008-.117a5.37,5.37,0,0,1,1.245-3.887c1.289-1.469,3.5-2.216,6.565-2.216s5.257.74,6.55,2.2a5.46,5.46,0,0,1,1.26,3.906L32.321,20.1l.294.266a1.458,1.458,0,0,1,.5,1.09v3.161a1.489,1.489,0,0,1-1.053,1.4l-.443.136-.143.441a16.5,16.5,0,0,1-2.225,4.487c-.234.33-.461.622-.656.846l-.221.252v3.3a3.749,3.749,0,0,0,2.085,3.372L38,42.632l.143.074C38.051,42.778,37.953,42.845,37.857,42.915Z" transform="translate(273 446)"/></g></svg>