<svg xmlns="http://www.w3.org/2000/svg" width="27.901" height="27.901" viewBox="0 0 27.901 27.901"><defs><style>.a{fill:#707070}</style></defs><path d="M13.951,0A13.951,13.951,0,1,0,27.9,13.951,13.967,13.967,0,0,0,13.951,0Zm0,26.739A12.788,12.788,0,1,1,26.739,13.951,12.8,12.8,0,0,1,13.951,26.739Z" class="a"/><path d="M125.79,298.7a.579.579,0,0,0-.7.431,6.978,6.978,0,0,1-13.575-.007.581.581,0,0,0-1.132.267,8.14,8.14,0,0,0,15.838.01A.581.581,0,0,0,125.79,298.7Z" class="a" transform="translate(-104.353 -282.4)"/><circle cx="1.163" cy="1.163" r="1.163" class="a" transform="translate(8.138 9.3)"/><circle cx="1.163" cy="1.163" r="1.163" class="a" transform="translate(17.438 9.3)"/></svg>