<svg xmlns="http://www.w3.org/2000/svg" width="194.874" height="203" viewBox="0 0 194.874 203"><defs><style>.a{fill:#777;}</style></defs><g transform="translate(-9.142)"><g transform="translate(9.142)"><path class="a" d="M86.8,324.332a18.273,18.273,0,1,0,12.878,31.217,18.236,18.236,0,0,0,0-25.889A17.7,17.7,0,0,0,86.8,324.332Z" transform="translate(-42.136 -180.206)"/><path class="a" d="M49.742,212.158a19.556,19.556,0,0,0-5.963-14.339,19.549,19.549,0,0,0-14.337-5.963A19.55,19.55,0,0,0,15.1,197.82a20.218,20.218,0,0,0,0,28.674,19.545,19.545,0,0,0,14.337,5.964,19.545,19.545,0,0,0,14.337-5.964A19.54,19.54,0,0,0,49.742,212.158Z" transform="translate(-9.142 -106.6)"/><path class="a" d="M352.762,107.1a10.179,10.179,0,1,0-7.17-2.982A9.775,9.775,0,0,0,352.762,107.1Z" transform="translate(-194.425 -48.225)"/><path class="a" d="M81.723,59.388a22.307,22.307,0,0,0-22.33,22.329,22.309,22.309,0,0,0,22.33,22.331,22.309,22.309,0,0,0,22.329-22.331A22.307,22.307,0,0,0,81.723,59.388Z" transform="translate(-37.063 -32.997)"/><path class="a" d="M413.673,213.684a12.257,12.257,0,1,0,3.551,8.63A11.74,11.74,0,0,0,413.673,213.684Z" transform="translate(-222.35 -116.754)"/><path class="a" d="M347.685,333.473a14.3,14.3,0,1,0,10.023,4.187A13.676,13.676,0,0,0,347.685,333.473Z" transform="translate(-189.348 -185.285)"/><path class="a" d="M217.24,383.717a16.251,16.251,0,1,0,11.482,4.762A15.656,15.656,0,0,0,217.24,383.717Z" transform="translate(-115.741 -213.202)"/><path class="a" d="M207.088,0a23.5,23.5,0,0,0-17.257,7.1,23.5,23.5,0,0,0-7.1,17.256,23.491,23.491,0,0,0,7.1,17.254,24.508,24.508,0,0,0,34.511,0,23.492,23.492,0,0,0,7.1-17.254,23.5,23.5,0,0,0-7.1-17.256A23.489,23.489,0,0,0,207.088,0Z" transform="translate(-105.59 0)"/></g></g></svg>