<svg xmlns="http://www.w3.org/2000/svg" width="50.499" height="62.585" viewBox="0 0 50.499 62.585"><defs><style>.a{fill:#707070;}</style></defs><g transform="translate(16.202 23.511)"><path class="a" d="M17.086,35.589h0a.94.94,0,0,1-.94-.94l0-21.2a.94.94,0,0,1,.94-.94h0a.94.94,0,0,1,.94.94l0,21.2A.94.94,0,0,1,17.086,35.589Z" transform="translate(-8.04 -12.507)"/><path class="a" d="M28.988,22.493a.944.944,0,0,1-.665-.274L20.88,14.776l-7.442,7.442a.94.94,0,0,1-1.329-1.329l8.108-8.108a.941.941,0,0,1,1.329,0l8.108,8.108a.939.939,0,0,1-.665,1.6Z" transform="translate(-11.834 -12.507)"/></g><path class="a" d="M49.013,62.585H7.915a4.7,4.7,0,0,1-4.7-4.7V4.7A4.7,4.7,0,0,1,7.915,0H37.761a.94.94,0,0,1,0,1.88H7.915A2.823,2.823,0,0,0,5.095,4.7V57.886a2.823,2.823,0,0,0,2.82,2.82h41.1a2.823,2.823,0,0,0,2.82-2.82V16.362a.94.94,0,1,1,1.88,0V57.888A4.7,4.7,0,0,1,49.013,62.585Z" transform="translate(-3.215)"/><path class="a" d="M37.044,17.111H22.032a.94.94,0,0,1-.94-.94V1.157a.94.94,0,1,1,1.88,0V15.229H37.044a.941.941,0,0,1,0,1.882Z" transform="translate(12.514 0.191)"/><path class="a" d="M37.044,17.3a.941.941,0,0,1-.673-.284L21.358,1.6A.94.94,0,1,1,22.706.286l15.012,15.42a.939.939,0,0,1-.675,1.594Z" transform="translate(12.514 0.001)"/></svg>