<svg xmlns="http://www.w3.org/2000/svg" width="21.5" height="14.181" viewBox="0 0 21.5 14.181"><defs><style>.a{fill:#707070;}</style></defs><g transform="translate(0 -27.804)"><path class="a" d="M295.039,29.382h12.1c-.017-.872-1.138-1.578-2.514-1.578h-9.589v1.578Z" transform="translate(-285.643)"/><path class="a" d="M295.039,169.792h12.1v1.328h-12.1Z" transform="translate(-285.643 -137.632)"/><path class="a" d="M.014,439.68a1.771,1.771,0,0,0,1.893,1.578H19.62a1.771,1.771,0,0,0,1.893-1.578Z" transform="translate(-0.014 -399.274)"/><path class="a" d="M295.039,102.321h12.1v1.328h-12.1Z" transform="translate(-285.643 -72.231)"/><path class="a" d="M295.039,237.264h12.1v1.328h-12.1Z" transform="translate(-285.643 -203.034)"/><path class="a" d="M0,304.737H21.5v1.328H0Z" transform="translate(0 -268.437)"/><path class="a" d="M0,372.208H21.5v1.328H0Z" transform="translate(0 -333.838)"/><path class="a" d="M9.4,28.5H1.064A1.064,1.064,0,0,0,0,29.559v7.666H9.4ZM7.859,33.913a.532.532,0,0,1,0,1.058.532.532,0,0,1-1.058,0,.532.532,0,0,1,0-1.058.532.532,0,0,1,1.058,0Zm-6.8.529a.532.532,0,0,1,.477-.529.532.532,0,0,1,1.058,0,.532.532,0,0,1,0,1.058.532.532,0,0,1-1.058,0,.532.532,0,0,1-.477-.529Zm2.632,0a.532.532,0,0,1,.477-.529.532.532,0,0,1,1.058,0,.532.532,0,0,1,0,1.058.532.532,0,0,1-1.058,0A.532.532,0,0,1,3.692,34.442ZM5.7,31.278a.532.532,0,0,1-.477.529.532.532,0,0,1-1.058,0,.532.532,0,0,1,0-1.058.532.532,0,0,1,1.058,0A.532.532,0,0,1,5.7,31.278Zm-2.632,0a.532.532,0,0,1-.477.529.532.532,0,0,1-1.058,0,.532.532,0,0,1,0-1.058.532.532,0,0,1,1.058,0,.532.532,0,0,1,.477.529Zm5.264,0a.532.532,0,0,1-.477.529.532.532,0,0,1-1.058,0,.532.532,0,0,1,0-1.058.532.532,0,0,1,1.058,0A.532.532,0,0,1,8.336,31.278Z" transform="translate(0 -0.667)"/></g></svg>